<svg xmlns="http://www.w3.org/2000/svg" xmlns:xlink="http://www.w3.org/1999/xlink" width="63" height="63" viewBox="0 0 63 63">
  <defs>
    <clipPath id="clip-path">
      <rect id="Rectangle_1" data-name="Rectangle 1" width="63" height="63" transform="translate(132 83)" fill="#fff" stroke="#707070" stroke-width="1"/>
    </clipPath>
  </defs>
  <g id="Mask_Group_1" data-name="Mask Group 1" transform="translate(-132 -83)" clip-path="url(#clip-path)">
    <g id="_1297939" data-name="1297939" transform="translate(132 92.881)">
      <path id="Path_1" data-name="Path 1" d="M61.107-162.937a26.357,26.357,0,0,0-13.8,5.183,50.4,50.4,0,0,0-6.994,6.014,51.551,51.551,0,0,0-6.351,7.943c-.42.7-.806,1.147-.915,1.039-.074-.074.045-.312.3-.6.5-.569.485-.92-.074-1.345L33-144.9l.035-.232a29.01,29.01,0,0,1,2.77-6.212c.559-.955,1.469-2.339,1.949-2.963a8.366,8.366,0,0,1,1.513-1.548,9.419,9.419,0,0,1,.871-.475c.643-.307.856-.5.91-.821.045-.267,0-.4-.143-.4a5.79,5.79,0,0,0-1.4.831,14.475,14.475,0,0,0-2.062,2.062,35.372,35.372,0,0,0-4.6,8.517,4.147,4.147,0,0,1-.465.974,2.306,2.306,0,0,1-.346.04l-.272.015-.411-.964a32.332,32.332,0,0,0-3.714-6.628,12.963,12.963,0,0,0-4.521-4.105c-.633-.247-.811-.148-.584.321a1.742,1.742,0,0,0,1.083.717,5.9,5.9,0,0,1,.608.228,11.994,11.994,0,0,1,3.146,3.141,29.251,29.251,0,0,1,3.774,7.078l.168.475-.307.321a1.74,1.74,0,0,0-.341.45c-.049.2.064.415.43.8.341.361.425.509.356.638-.035.059-.084.02-.237-.183A56.976,56.976,0,0,0,16.84-156.295a29.166,29.166,0,0,0-8.829-4,24.846,24.846,0,0,0-5.886-.752l-1.291-.03-.213.242a2.43,2.43,0,0,0-.584,1.677c-.119,2.31,1.454,6.019,3.591,8.492,1.41,1.622,1.39,1.593,1.39,2.31a4.873,4.873,0,0,0,.054.757,10.36,10.36,0,0,0,.564,1.3,7.377,7.377,0,0,1,.885,2.587c.272,1.548.44,2,.871,2.325l.223.173.03.673a4.292,4.292,0,0,0,.163,1.118,4.957,4.957,0,0,0,1.9,2.725c.084.049.153.109.153.129a.858.858,0,0,1-.168.223,2.827,2.827,0,0,0-.574,1.964c-.148,2.295-.158,2.394-.4,2.933l-.109.257.124.262a2.519,2.519,0,0,1,.183.707c.114.91.188,1.157.425,1.41l.119.129-.1.262a1.914,1.914,0,0,0-.1.7,2.587,2.587,0,0,0,.277,1.266,2.127,2.127,0,0,0,.8.94c.242.153.257.178.287.425a3.61,3.61,0,0,0,1.054,1.855,3.183,3.183,0,0,0,1.157.7,4.767,4.767,0,0,1,.757.6c.43.4.574.5.781.569a1.931,1.931,0,0,0,.391.074,1.692,1.692,0,0,1,.91.415c.589.45.559.435,1.157.445l.544,0,.856.43c1.128.569,1.41.628,2.028.435a3.109,3.109,0,0,1,1.449-.025,8.122,8.122,0,0,0,.964.069,1.607,1.607,0,0,0,1.222-.42,2.458,2.458,0,0,1,1.083-.485,1.777,1.777,0,0,0,1.058-.569,19.679,19.679,0,0,0,2.344-3.863,50.922,50.922,0,0,0,2.978-7.518,2.953,2.953,0,0,1,.247-.643c.01.04.04.663.069,1.385.124,2.987.361,4.229.964,4.966l.119.148.1-.124a4.189,4.189,0,0,0,.643-1.825c.025-.2.064-1.311.084-2.463s.045-2.087.064-2.087a3.316,3.316,0,0,1,.223.559,42.642,42.642,0,0,0,2.359,5.426c1.766,3.546,2.859,5.139,3.986,5.817a2.669,2.669,0,0,0,1.078.317,2.072,2.072,0,0,1,.742.321c.247.143.514.292.594.326a3.878,3.878,0,0,0,1.578-.074,7.639,7.639,0,0,1,1.657-.129,2.285,2.285,0,0,0,1.761-.44,3.923,3.923,0,0,1,1.469-.648c.2-.03.43-.064.519-.079a2.376,2.376,0,0,0,.594-.336,2.34,2.34,0,0,1,1.093-.549c.46-.1.6-.208,1.049-.757.42-.514.564-.628.866-.673.326-.049.608-.267,1.024-.777a2.36,2.36,0,0,0,.678-1.5c.064-.564.094-.628.321-.767a2.351,2.351,0,0,0,.851-1.321,3.452,3.452,0,0,0-.025-1.7l-.109-.317.163-.168.163-.168.03-.851a3.366,3.366,0,0,1,.143-1.143c.134-.371.119-.465-.218-1.236a4.566,4.566,0,0,1-.45-2.058c-.1-1.33-.228-1.746-.623-2.067a.492.492,0,0,1-.143-.153.536.536,0,0,1,.163-.129,4.127,4.127,0,0,0,1-1.024,5.34,5.34,0,0,0,.747-2.859l.03-.767.242-.218c.435-.386.529-.7.658-2.181a6.771,6.771,0,0,1,.757-2.943,3.7,3.7,0,0,0,.509-2.147l-.035-.361.341-.529a40.613,40.613,0,0,0,2.636-4.437,11.013,11.013,0,0,0,1.237-5.114,3.189,3.189,0,0,0-.519-1.919l-.153-.208-.435,0C61.967-162.982,61.473-162.957,61.107-162.937Zm-2.186.589c.262.119.3.218.158.371a1.818,1.818,0,0,1-1.172.361c-.5.025-.509.02-.509-.084C57.4-162.235,58.312-162.626,58.921-162.349Zm3.546.247c.084.035.124.079.114.138s-.089.094-.361.119a2.224,2.224,0,0,1-.46.015c-.1-.025-.109-.04-.049-.109A.736.736,0,0,1,62.467-162.1Zm-1.964.663a.693.693,0,0,1,.356.539c0,.218-.272.46-.559.5-.539.084-1.123-.237-1.054-.579A.813.813,0,0,1,60.5-161.439Zm-54.99.925c.232.124.46.411.435.534-.035.173-1.573.035-1.85-.163-.138-.1-.025-.307.242-.43A1.558,1.558,0,0,1,5.514-160.514Zm52.265-.1a1.681,1.681,0,0,1,1.1.5c.3.49-.079.974-.88,1.133a4.807,4.807,0,0,1-2.74-.465c-.341-.232-.193-.6.351-.87A3.8,3.8,0,0,1,57.778-160.613Zm4.684.3c.257.2.089.406-.386.47-.312.045-.475,0-.475-.143C61.6-160.331,62.17-160.548,62.462-160.316Zm-61.108.257c.336.119.213.232-.252.232a1.367,1.367,0,0,1-.307-.03.155.155,0,0,1-.045-.232A1.076,1.076,0,0,1,1.354-160.059Zm53.214.119a.365.365,0,0,1,.148.252c.025.223-.129.307-.544.307-.292,0-.341-.015-.411-.114-.109-.173-.143-.4-.064-.465A.922.922,0,0,1,54.568-159.94Zm-2.265.059a.461.461,0,0,1-.1.218,2.171,2.171,0,0,1-.91.465l-.193.03.094-.158C51.432-159.737,52.3-160.172,52.3-159.881Zm-48.7.2a.551.551,0,0,1,.43.747.768.768,0,0,1-.613.406.676.676,0,0,1-.495-.03c-.3-.114-.4-.262-.361-.534a.733.733,0,0,1,.509-.559A.7.7,0,0,1,3.6-159.683Zm49.44.386c.114.03.114.045.094.43a1.38,1.38,0,0,1-.806,1.266,2.6,2.6,0,0,1-1.024.163c-.114-.02-.119-.035-.084-.252C51.388-158.743,52.248-159.51,53.04-159.3Zm7.8.069a.484.484,0,0,1,.361.415.875.875,0,0,1-.915.717,1.9,1.9,0,0,1-.925-.257c-.307-.218-.084-.668.415-.846A2.292,2.292,0,0,1,60.845-159.228Zm-53.13.4c.509.138.673.317.549.6a2.193,2.193,0,0,1-1.415.905,3.155,3.155,0,0,1-.92.059A1.631,1.631,0,0,1,5-157.447a.946.946,0,0,1-.6-.628c-.084-.4.534-.692,1.7-.816A6.867,6.867,0,0,1,7.715-158.832Zm42.808-.079a2.1,2.1,0,0,1-.119.262,1.874,1.874,0,0,1-1.39.935l-.277.03.054-.143a1.571,1.571,0,0,1,.831-.856C49.929-158.842,50.522-158.99,50.522-158.911Zm-38.891.4c.356.129.608.346.608.524,0,.089-.02.1-.158.069-.529-.114-.93-.386-.93-.623C11.152-158.669,11.226-158.664,11.632-158.516Zm-1.964,0c.351.183.035.618-.45.618-.287,0-.49-.143-.49-.346s.2-.346.529-.346A1.128,1.128,0,0,1,9.668-158.516Zm47.779,0a2.16,2.16,0,0,1,1.177.5c.134.129.208.247.2.3-.02.114-.48.391-.831.5a5.222,5.222,0,0,1-2.132-.054,2.359,2.359,0,0,1-1.4-.772l-.069-.143.257-.1a3.851,3.851,0,0,1,.875-.252A8.673,8.673,0,0,1,57.447-158.52ZM1.7-158.179c.193.391.04.445-.673.252a.64.64,0,0,1-.262-.109c0-.064.262-.3.4-.351a.713.713,0,0,1,.272-.04C1.557-158.417,1.6-158.377,1.7-158.179Zm9.635.351a1.916,1.916,0,0,1,.841.851c.134.3.208.826.124.88a3.252,3.252,0,0,1-1.093-.178,1.279,1.279,0,0,1-.8-.668,1.671,1.671,0,0,1-.035-.475c.02-.247.045-.317.158-.415A.753.753,0,0,1,11.335-157.828Zm50.257.158c.163.114.148.411-.025.618a.689.689,0,0,1-.89.193.328.328,0,0,1-.129-.5A.854.854,0,0,1,61.592-157.67Zm-48.1.045a1.917,1.917,0,0,1,1.345.96l.035.119-.326-.035a1.948,1.948,0,0,1-1.068-.411,2.047,2.047,0,0,1-.495-.668C12.982-157.719,13.18-157.709,13.491-157.625Zm40.5.168c.054.054-.049.326-.2.509a1.954,1.954,0,0,1-1.83.47,1.552,1.552,0,0,1-.366-.148c-.089-.064-.084-.079.094-.277a2.075,2.075,0,0,1,1.321-.594A2.988,2.988,0,0,1,53.989-157.457Zm-50.182.148c.228.1.519.411.519.554,0,.059-.084.148-.232.247-.7.44-1.563.376-1.741-.129a.413.413,0,0,1,.01-.381C2.526-157.408,3.238-157.551,3.807-157.309Zm4.8.455a1.965,1.965,0,0,1,.435.089c.079.079-.035.326-.247.534a3.5,3.5,0,0,1-2.191.742A8.44,8.44,0,0,1,4.89-155.6c-.148-.04-.158-.208-.025-.49.218-.475.687-.732,1.513-.821A15.692,15.692,0,0,1,8.6-156.854Zm40-.025a10.126,10.126,0,0,1-1.439,1.266,9.807,9.807,0,0,1-.875.509,6.075,6.075,0,0,1-1.543.554c-.059-.059.232-.465.564-.781a6.619,6.619,0,0,1,2.735-1.5C48.564-156.977,48.648-156.982,48.608-156.878Zm11.574.6.237.1-.015.386-.015.386-.272.143a1,1,0,0,1-.529.148.421.421,0,0,1-.415-.153.729.729,0,0,1,.094-1.068A1.157,1.157,0,0,1,60.182-156.275Zm-3.912-.04a2.372,2.372,0,0,1,1.177.44l.188.178-.069.321a1.482,1.482,0,0,1-1.088,1.138,1.82,1.82,0,0,1-2.295-.92C53.955-155.968,54.929-156.507,56.27-156.315Zm-45.256.267a1.538,1.538,0,0,1,.846.415c.218.213.228.272.049.356a1.938,1.938,0,0,1-1.973-.124c-.287-.218-.425-.633-.228-.683A5.14,5.14,0,0,1,11.014-156.047Zm40.894.1a1.326,1.326,0,0,1,.346.178l.124.094-.2.178a2.711,2.711,0,0,1-1.731.613,1.248,1.248,0,0,1-.821-.178c-.114-.1-.049-.307.163-.519A2.316,2.316,0,0,1,51.907-155.944Zm-35.982.252a6.149,6.149,0,0,1,1.756.757,6.955,6.955,0,0,1,1.335,1.108c0,.079-.569,0-1.063-.138a7,7,0,0,1-1.914-.955,6.056,6.056,0,0,1-1.029-.905C15.01-155.889,15.351-155.84,15.925-155.691Zm-13.1,0a.67.67,0,0,1,.361.514c0,.247-.46.42-.811.3a.511.511,0,0,1-.3-.816A.616.616,0,0,1,2.828-155.7ZM9.1-154.633a.763.763,0,0,1,.47.742c0,.767-.687,1.286-1.706,1.286-.935,0-1.647-.45-1.736-1.093a.591.591,0,0,1,.386-.707A4.048,4.048,0,0,1,9.1-154.633Zm4.4.02a1.263,1.263,0,0,1,.673.589c.079.193,0,.252-.435.331a3.266,3.266,0,0,1-1.35-.074,3.915,3.915,0,0,1-1.088-.475c0-.069.262-.287.445-.376a1.742,1.742,0,0,1,.964-.143A1.62,1.62,0,0,1,13.5-154.613Zm44.574-.109a.736.736,0,0,1,.054.589l-.049.292h-.287c-.277,0-.287,0-.341-.153a.547.547,0,0,1,.049-.559C57.664-154.761,57.976-154.851,58.075-154.722Zm-53.6.247a.778.778,0,0,1,.445.589.732.732,0,0,1-.43.519,1.452,1.452,0,0,1-.87,0,.547.547,0,0,1-.321-.821A.909.909,0,0,1,4.475-154.475Zm44.485.336c.069.025.129.064.129.089a2.68,2.68,0,0,1-.3.411,8.076,8.076,0,0,0-1.286,2.814,1.732,1.732,0,0,1-.124.376,2.819,2.819,0,0,1-.559.406,7.6,7.6,0,0,0-3.22,3.531.909.909,0,0,1-.242.336c-.1.084-1.162.643-2.359,1.246a25.106,25.106,0,0,0-4.328,2.567,5.909,5.909,0,0,1-2.681,1.157l-.331.035.025-.262a5.377,5.377,0,0,1,.935-2.32,20.477,20.477,0,0,1,2.4-2.775c.4-.42.994-1.083,1.335-1.474s.93-1.073,1.306-1.509a32.826,32.826,0,0,1,2.75-2.785,7.72,7.72,0,0,1,4.343-1.84A13.464,13.464,0,0,1,48.959-154.138Zm3.161.074a1.844,1.844,0,0,1,1.5,1.553,2.335,2.335,0,0,1-1.128,2.715,3.486,3.486,0,0,1-2.142.158c-.574-.129-2.463-.643-2.508-.687a11.98,11.98,0,0,1,.425-2.043,2.108,2.108,0,0,1,.594-.92A4.424,4.424,0,0,1,52.12-154.064Zm7.721.331a.745.745,0,0,1,.01.312c-.084.326-.6.6-.757.4a.728.728,0,0,1,.02-.623.606.606,0,0,1,.46-.257C59.766-153.936,59.791-153.921,59.841-153.733Zm-42.333.584c2.3.257,3.625,1.058,6.751,4.08.584.564,1.652,1.578,2.374,2.25a38.944,38.944,0,0,1,3.428,3.487,4.272,4.272,0,0,1,.905,2.048l.03.218-.44-.035a5.757,5.757,0,0,1-1.538-.371,14.83,14.83,0,0,1-1.84-.969,28.139,28.139,0,0,0-4.748-2.3c-1.439-.49-1.6-.6-2.013-1.464-.544-1.133-1.019-1.578-2.928-2.715l-.91-.544-.109-.4a7.828,7.828,0,0,0-1.528-2.814c-.228-.277-.267-.351-.208-.386A12.03,12.03,0,0,1,17.508-153.149Zm38.994.1a1.055,1.055,0,0,1,.411,1.345,1.192,1.192,0,0,1-1.964.183,1.25,1.25,0,0,1,.539-1.593A1.258,1.258,0,0,1,56.5-153.045Zm-50.222.153a1.173,1.173,0,0,1,.1.628c-.025.089-.069.1-.321.1H5.766l-.1-.272c-.188-.495-.129-.613.307-.618C6.2-153.05,6.216-153.04,6.28-152.892Zm7.434.119a2.424,2.424,0,0,1,1.959,1.553c.148.4.594,1.924.569,1.949s-1.172.425-1.924.673a6.5,6.5,0,0,1-1,.247,2.732,2.732,0,0,1-2.923-1.37,1.5,1.5,0,0,1-.153-.905,1.959,1.959,0,0,1,.114-.856,2.148,2.148,0,0,1,1.761-1.3A4.814,4.814,0,0,1,13.714-152.773Zm44.465.148a.7.7,0,0,1,.257.465c0,.148-.223.223-.47.148-.218-.064-.569-.282-.569-.356a.577.577,0,0,1,.143-.193A.517.517,0,0,1,58.179-152.625ZM4.5-152.031a.547.547,0,0,1,.242.752c-.143.208-.539.094-.683-.208-.109-.228-.1-.406.02-.524S4.282-152.135,4.5-152.031Zm3.962.509a1.135,1.135,0,0,1,.336,1.751.989.989,0,0,1-.687.317,1.053,1.053,0,0,1-.92-1.771A1.087,1.087,0,0,1,8.461-151.522Zm-2.137.6c.148.114.158.188.059.386a.551.551,0,0,1-.539.252c-.356,0-.44-.213-.2-.495C5.865-151.037,6.107-151.087,6.325-150.918ZM57.862-149.9a1.288,1.288,0,0,1-.015.613.55.55,0,0,1-.4-.228c-.074-.163-.069-.4.01-.43C57.6-150.008,57.833-149.984,57.862-149.9Zm-1.7.045c.228.119.232.242.02.554l-.188.272-.3-.02c-.524-.045-.806-.277-.678-.559A1.045,1.045,0,0,1,56.161-149.86Zm-6.232.371a6.561,6.561,0,0,1,2.6.613,2.481,2.481,0,0,1-.02,3.388c-.569.554-1.177.569-4.308.129-2.5-.356-3.067-.495-3.645-.88a.692.692,0,0,1-.361-.628,2.905,2.905,0,0,1,1.143-1.687,2.842,2.842,0,0,1,1.736-.93A22.843,22.843,0,0,1,49.929-149.489Zm-32.52,1.157a3.752,3.752,0,0,1,1.345.712c.93.722,1.3,1.182,1.3,1.612,0,.678-.717,1.019-3.24,1.533-.6.124-1.5.317-2,.425a7.585,7.585,0,0,1-1.632.232,2.056,2.056,0,0,1-1.009-.084,1.466,1.466,0,0,1-.816-.737,3.358,3.358,0,0,1-.312-2.067,2,2,0,0,1,1.385-1.222,20.257,20.257,0,0,1,2.458-.45A10.357,10.357,0,0,1,17.409-148.332Zm-10.753.084a.373.373,0,0,1-.084.524c-.153.138-.3.143-.366.02a.447.447,0,0,1,.163-.6C6.527-148.366,6.542-148.361,6.656-148.248Zm2.354-.03c.163.069.173.084.143.237a.855.855,0,0,1-.2.326.537.537,0,0,1-.44.193c-.46.04-.772-.173-.772-.514a.44.44,0,0,1,.015-.168s.1-.035.208-.074A1.984,1.984,0,0,1,9.01-148.277Zm46.478.539a.539.539,0,0,1,.366.579c-.04.4-.341.673-.856.786-.445.1-1.009-.069-1.054-.317a1.052,1.052,0,0,1,.6-1.024A1.459,1.459,0,0,1,55.488-147.738Zm1.687.663c-.04.218-.415.6-.594.6-.252,0-.124-.44.257-.846l.237-.252.064.163A.627.627,0,0,1,57.175-147.075Zm-47.368.91a.766.766,0,0,1,.48.687c0,.386-.282.589-.826.589-.569,0-1.029-.326-1.029-.732C8.432-146.2,9.134-146.477,9.807-146.165Zm-2.508.381a.936.936,0,0,1,.539.8c0,.158-.01.158-.326.045a1.019,1.019,0,0,1-.44-.6C6.943-145.982,6.963-146,7.3-145.784Zm37.338.376c.257.045.871.153,1.36.252a12.593,12.593,0,0,0,2.522.242c2.038.089,2.428.148,3.057.48a2.06,2.06,0,0,1,.979,2.226,3.245,3.245,0,0,1-1.113,1.761,1.563,1.563,0,0,1-1.068.317,6.181,6.181,0,0,1-1.929-.406,15.381,15.381,0,0,0-2.5-.519c-1.276-.148-1.766-.1-4.526.445a17.511,17.511,0,0,1-4.5.594,6.483,6.483,0,0,1-1.731-.114,8.411,8.411,0,0,1-.905-.267c-.307-.124-.371-.163-.326-.223a5.573,5.573,0,0,1,1.37-.608,9.805,9.805,0,0,0,3.19-1.79c2.285-1.637,3.23-2.171,4.239-2.384A6.434,6.434,0,0,1,44.637-145.409Zm9.62.109c.529.272.594.7.138.89a.9.9,0,0,1-1.2-.594.3.3,0,0,1,.064-.312c.094-.124.119-.129.45-.109A1.64,1.64,0,0,1,54.257-145.3Zm2.1.465a.4.4,0,0,1-.148.346c-.193.2-.411.188-.435-.015a.429.429,0,0,1,.252-.435C56.28-145.1,56.359-145.072,56.359-144.835Zm-34.637.173a14.3,14.3,0,0,1,2.795,1.039,14.989,14.989,0,0,1,2.389,1.38,7.859,7.859,0,0,0,3.6,1.632c.237.03.237.035.153.129a4.06,4.06,0,0,1-1.375.613,8.651,8.651,0,0,1-1.2.183,24.824,24.824,0,0,1-5.46-.44,13.743,13.743,0,0,0-2.2-.134,6.526,6.526,0,0,0-1.86.134,23.448,23.448,0,0,0-2.814.87,2.629,2.629,0,0,1-2.354.079,2.769,2.769,0,0,1-1.355-1.79,2.834,2.834,0,0,1,.109-1.459,2.114,2.114,0,0,1,.871-.92,6.519,6.519,0,0,1,2.755-.5,10.827,10.827,0,0,0,2.943-.5c.4-.109.905-.242,1.138-.292A5.5,5.5,0,0,1,21.722-144.662Zm-10.6.87c.059.5.045.569-.129.673a1.189,1.189,0,0,1-.9.163,1.126,1.126,0,0,1-.376-.158l-.124-.1.094-.178a1.349,1.349,0,0,1,1.167-.653l.228,0Zm-2.795.391a.508.508,0,0,1,.3.49c0,.124-.02.148-.114.148a.484.484,0,0,1-.228-.079,1.176,1.176,0,0,1-.3-.554C7.987-143.47,8.12-143.475,8.328-143.4Zm46.819.856a.659.659,0,0,1,.282.915.723.723,0,0,1-.668.351c-.875,0-1-.979-.158-1.276A.672.672,0,0,1,55.147-142.545Zm-45.019,1.533a1.1,1.1,0,0,1,.326.252c.143.163.163.213.138.386a.774.774,0,0,1-1.217.44.656.656,0,0,1,.02-1.1A1.369,1.369,0,0,1,10.128-141.012Zm29.849,2.191c2.142.01,3.858.04,3.843.064a16.78,16.78,0,0,1-2.671.554,15.61,15.61,0,0,1-1.706.064,8.514,8.514,0,0,1-1.835-.114,5.494,5.494,0,0,1-1.553-.48c-.321-.158-.331-.168-.148-.143C36.016-138.86,37.846-138.835,39.977-138.82Zm8.492.064c1.741.2,2.913.89,3.22,1.919.114.371.1.638-.035.786-.3.317-.93.46-2.062.46a36.928,36.928,0,0,1-4.051-.321,1.95,1.95,0,0,1-1.4-1.152,4.634,4.634,0,0,0-.781-1.128c-.064-.035-.094-.069-.069-.089a21.1,21.1,0,0,1,2.928-.49A19.927,19.927,0,0,1,48.47-138.756Zm-19.611.064c0,.351-1.662.89-3.136,1.024a17.685,17.685,0,0,1-2.864-.025,7.306,7.306,0,0,1-1.914-.42,9.741,9.741,0,0,1,1.152-.069c3.9-.114,5.159-.208,6.143-.47C28.671-138.766,28.859-138.776,28.859-138.692Zm7.493.366c2.379.816,2.443.821,4.155.534a7.284,7.284,0,0,1,1.632-.163,1.565,1.565,0,0,1,.875.178,3.721,3.721,0,0,1,1.464,1.6c.089.158.381.781.658,1.385a9.136,9.136,0,0,0,1.108,2.067,2.679,2.679,0,0,1,.519.836c0,.054-.138.064-.8.04a12.178,12.178,0,0,1-5.159-1.573c-.89-.45-2.419-1.3-3.067-1.716-1.711-1.093-2.809-2.335-2.809-3.175a1.1,1.1,0,0,1,.035-.336C35.022-138.746,35.353-138.667,36.352-138.326Zm-6.553-.109c.049.059.035.163-.069.524a4.743,4.743,0,0,1-1.449,2.275,18.116,18.116,0,0,1-3.467,2.473c-2.458,1.474-4,2.077-5.638,2.226a6.782,6.782,0,0,1-.7.04c-.03-.01.045-.143.173-.292a9.029,9.029,0,0,0,1.039-2.1,23.757,23.757,0,0,1,1-2.513c.781-1.528,1.548-1.87,3.5-1.548,1.716.287,1.919.252,3.957-.6a7.844,7.844,0,0,1,1.513-.549A.2.2,0,0,1,29.8-138.435Zm-9.773.643c.618.064,1.019.124,1.424.2l.134.025-.2.178a2.921,2.921,0,0,0-.5.8c-.415.851-.6,1.118-.9,1.316a10.459,10.459,0,0,1-4.6.742c-1.276,0-1.622-.045-1.914-.242l-.163-.109,0-.42a1.27,1.27,0,0,1,.143-.712c.425-.9,1.657-1.533,3.437-1.781A18.4,18.4,0,0,1,20.025-137.792Zm16.01,1.934a35.715,35.715,0,0,0,4.283,2.888l.7.406.208.6a20.74,20.74,0,0,0,2.087,4.456c.925,1.5,1.054,1.835,1.019,2.735-.035.945-.2,1.128-.95,1.088-.653-.03-1.246-.435-2.038-1.38a27.609,27.609,0,0,1-1.884-2.691c-.46-.707-1.261-1.879-1.781-2.607-2.176-3.027-2.834-4.2-3.324-5.891-.223-.757-.257-1.019-.168-1.157.074-.109.079-.109.648.47C35.155-136.615,35.694-136.13,36.035-135.858Zm-5.391-1.509a6.516,6.516,0,0,1-.326,2.241,16.451,16.451,0,0,1-2.25,4.432c-.48.777-1.217,2-1.632,2.72a26.709,26.709,0,0,1-2.839,4.343,1.857,1.857,0,0,1-1.355.618,2.471,2.471,0,0,1-.485-.035c-.143-.045-.361-.47-.415-.811a3.258,3.258,0,0,1,.173-1.434c.074-.208.391-.905.712-1.543a20.018,20.018,0,0,0,1.711-4.353c.158-.623.183-.678.361-.841.109-.094.791-.6,1.523-1.123,2.567-1.84,3.65-2.809,4.471-4.021a1.105,1.105,0,0,1,.247-.3C30.565-137.47,30.61-137.426,30.644-137.366Zm23.419.223a1.617,1.617,0,0,1,.762,1.34v.272l-.158-.03a2.519,2.519,0,0,1-1.222-.752,1.758,1.758,0,0,1-.351-.465.664.664,0,0,1,.366-.425A.675.675,0,0,1,54.064-137.144Zm-20.452.673c.089.173.49.91.9,1.647,1.588,2.849,2.072,4.174,2.186,5.985.015.242.04.584.054.752a.721.721,0,0,1-.015.312,1.247,1.247,0,0,1-.223-.336c-.1-.183-.46-.811-.806-1.395-1.652-2.809-2.349-4.669-2.349-6.281a3.61,3.61,0,0,1,.079-.989A1.946,1.946,0,0,1,33.612-136.471Zm-2.023.678a5.087,5.087,0,0,1-.025,1.345,14.094,14.094,0,0,1-1.617,4.57,16.612,16.612,0,0,0-.989,2.231c0,.04-.02.069-.045.069a4.751,4.751,0,0,1-.153-1.415,8.8,8.8,0,0,1,.594-3.037c.208-.564.356-.905,1.152-2.646.257-.574.539-1.237.623-1.479a3.865,3.865,0,0,1,.213-.514C31.45-136.8,31.53-136.5,31.589-135.793Zm-19.9.01c.134.049.143.213.035.574s-.376.613-.979.91l-.5.247-.015-.228a1.536,1.536,0,0,1,.9-1.558A1.011,1.011,0,0,1,11.686-135.784Zm34.37.317a7.258,7.258,0,0,0,1.894.173c2.562.089,3.081.218,3.986.984a3.772,3.772,0,0,1,.974,1.237,1.871,1.871,0,0,1,.109,1.326,1.3,1.3,0,0,1-.707.722,2,2,0,0,1-.856.163,2.923,2.923,0,0,1-1.182-.119c-2.483-.6-4-1.776-4.778-3.695-.247-.6-.237-.91.015-.915C45.547-135.591,45.789-135.536,46.056-135.467Zm7.869.683a1.088,1.088,0,0,1,.257.722c0,.312-.084.4-.376.4-.193,0-.228-.015-.272-.138a1.712,1.712,0,0,1,.069-.964C53.708-134.928,53.787-134.933,53.925-134.785Zm-34.335.425a3.7,3.7,0,0,1-.692,1.9,7.651,7.651,0,0,1-1.434,1.484c-1.533,1.138-3.522,1.622-4.54,1.113-1-.5-1.029-1.736-.064-2.854a3.462,3.462,0,0,1,2.053-1.266c.287-.069,1.212-.228,2.062-.351s1.682-.267,1.855-.317a1.258,1.258,0,0,1,.653-.109l.143.02Zm35.814-.064c.173.267.054.811-.183.811-.173,0-.267-.213-.228-.549.04-.391.1-.509.228-.44A.686.686,0,0,1,55.4-134.423Zm-43.881,1.133a1.662,1.662,0,0,1,.114.485c.02.247,0,.3-.094.411a.349.349,0,0,1-.534,0,.751.751,0,0,1,.094-.964C11.286-133.563,11.4-133.543,11.523-133.291ZM54-133.063a.555.555,0,0,1,.178.618c-.079.163-.292.3-.406.252-.069-.025-.084-.1-.084-.425C53.688-133.192,53.742-133.271,54-133.063Zm-44.034.069a.76.76,0,0,1,.054.811q-.178.178-.3-.074c-.1-.223-.049-.861.069-.861A.4.4,0,0,1,9.965-132.994Zm45.622.188a.134.134,0,0,1,0,.168.432.432,0,0,1-.4.129c-.1-.04-.084-.228.035-.381.094-.119.114-.129.208-.064A.491.491,0,0,1,55.587-132.806ZM42.5-131.95c3.581,1.415,5.767,2.948,6.44,4.521a1.477,1.477,0,0,1,.119.692,1.022,1.022,0,0,1-.143.687,2.219,2.219,0,0,1-1.568,1.014,2.614,2.614,0,0,1-2.542-.7,16.8,16.8,0,0,1-2.339-3.833c-.752-1.548-1.083-2.468-.945-2.636a.2.2,0,0,1,.1-.074C41.649-132.277,42.045-132.128,42.5-131.95Zm-31.017.351a1.1,1.1,0,0,1-.025.767c-.04.04-.114.015-.277-.079-.228-.134-.312-.272-.242-.391a2.284,2.284,0,0,1,.425-.48C11.384-131.782,11.439-131.7,11.483-131.6Zm12.232.119a6.867,6.867,0,0,1-.381,1.677c-.178.47-1.138,2.542-1.7,3.675a5.679,5.679,0,0,1-.994,1.5,3.288,3.288,0,0,1-3.527.094,1.3,1.3,0,0,1-.653-1.311c.109-1.454,1.954-3.18,5.327-5a10.361,10.361,0,0,1,1.82-.841C23.7-131.683,23.715-131.659,23.715-131.481Zm30.042-.025a.592.592,0,0,1-.242.495c-.158.1-.272.054-.346-.153-.04-.119-.03-.148.114-.277C53.46-131.6,53.708-131.634,53.757-131.505Zm-5.98.114a8.157,8.157,0,0,1,3.245,1.147,1.532,1.532,0,0,1,.786,1.187,1.821,1.821,0,0,1-.786,1.415c-.574.3-1.138.045-2.641-1.217a20.014,20.014,0,0,0-3.165-2.255,3.322,3.322,0,0,1-.529-.331c0-.064.292-.079,1.385-.064A9.869,9.869,0,0,1,47.777-131.392Zm-37.753-.01c.109.1.119.292.01.331a.813.813,0,0,1-.435,0c-.1-.04-.1-.213,0-.326A.311.311,0,0,1,10.024-131.4Zm45.187.074a.879.879,0,0,1,.01.6c-.109.287-.49.356-.6.1-.074-.168-.02-.331.208-.564C55.033-131.4,55.112-131.426,55.211-131.327Zm-18.251.47c.163.267.594.9.955,1.4s.95,1.326,1.316,1.83c1.474,2.058,2.191,3.522,2.191,4.5,0,1.024-.91,1.212-1.761.361-1.123-1.123-2.488-4.377-2.943-7.009a4.8,4.8,0,0,1-.1-1.558A2.456,2.456,0,0,1,36.96-130.857Zm-8.3.8a16.689,16.689,0,0,1-.495,3.3c-.594,2.424-1.543,4.209-2.527,4.748a1,1,0,0,1-.618.143c-.4,0-.49-.045-.6-.3a4.854,4.854,0,0,1,.727-2.953c.178-.356.861-1.548,1.513-2.651s1.33-2.25,1.5-2.547.346-.584.386-.633c.074-.084.079-.084.119.015A5.153,5.153,0,0,1,28.661-130.061Zm-7.889-.594c-.03.025-.381.237-.791.48a10.411,10.411,0,0,0-2.968,2.325c-1.33,1.34-1.489,1.459-2.013,1.459a1.42,1.42,0,0,1-.455-.069,1.707,1.707,0,0,1-.712-.692,1.173,1.173,0,0,1-.134-.7,1.148,1.148,0,0,1,.109-.643c.524-.969,2.092-1.672,4.54-2.028A11.284,11.284,0,0,1,20.772-130.655Zm-8.759.559c.282.223.272.49-.03.49-.262,0-.623-.48-.42-.559A.465.465,0,0,1,12.013-130.1Zm-1.553.321c.242.208.356.49.257.648a.575.575,0,0,1-.287.089l-.252.035-.059-.223c-.1-.415-.054-.678.124-.678A.634.634,0,0,1,10.46-129.774Zm42.981.3c0,.351-.059.465-.247.465-.138,0-.148-.01-.148-.2,0-.321.124-.5.361-.539C53.426-129.749,53.44-129.631,53.44-129.477Zm1.528.094a.821.821,0,0,1,.153.223.484.484,0,0,0,.03.114c.04.114-.153.282-.321.282-.188,0-.3-.158-.3-.411C54.529-129.581,54.717-129.67,54.969-129.383Zm-42.8,1.044a.778.778,0,0,1,.262.554c-.02.183-.2.2-.361.04A.5.5,0,0,1,12-128.31C12.072-128.379,12.062-128.379,12.166-128.34Zm-1.39.247c.153.059.188.2.119.49l-.064.272H10.3l.03-.223C10.4-128.028,10.524-128.187,10.776-128.093Zm42.259.638a.6.6,0,0,1-.321.574c-.317.119-.321-.267,0-.628C52.906-127.731,53.015-127.712,53.035-127.454Zm1.162.183c.262.356.079,1.415-.228,1.3a.555.555,0,0,1-.232-.465,5.2,5.2,0,0,1,.183-.955C53.965-127.469,54.093-127.41,54.2-127.271Zm-41.378,1.039c.267.287.341.539.178.623-.218.114-.435-.114-.49-.524-.03-.232-.025-.257.064-.257A.542.542,0,0,1,12.819-126.233Zm38.495.223a1.211,1.211,0,0,0,.03.247c.02.074,0,.114-.064.134a1.259,1.259,0,0,1-.539.015c-.064-.059.411-.529.534-.529C51.3-126.144,51.314-126.084,51.314-126.01Zm-39.756.02a.959.959,0,0,1,.282.811c0,.45-.049.589-.178.608-.183.03-.326-.242-.351-.678-.02-.336.049-.8.119-.8A.6.6,0,0,1,11.558-125.99Zm41.364.737c.158.148.129.267-.124.5-.42.386-1.108.386-1.014,0a.934.934,0,0,1,.376-.539A.653.653,0,0,1,52.921-125.254Zm-38.223.524c.2.153.208.242.01.341-.119.064-.163.069-.223.02a.732.732,0,0,1-.218-.46c0-.119.01-.124.134-.074A1.436,1.436,0,0,1,14.7-124.729Zm35.285-.074c.089.089.094.114.03.208-.143.223-.312.3-.707.322l-.381.025.035-.143a.612.612,0,0,1,.4-.42C49.627-124.937,49.855-124.932,49.983-124.8Zm-36.516.757a1.36,1.36,0,0,1,.5.544c.074.208-.025.3-.336.3-.48,0-.994-.326-.925-.584A.532.532,0,0,1,13.467-124.047Zm34.311.1a.4.4,0,0,1,.272.415c0,.208-.223.386-.529.43-.475.064-.747-.183-.643-.584a.374.374,0,0,1,.247-.232A.727.727,0,0,1,47.777-123.948Zm3.131.059a.26.26,0,0,1,.109.247c0,.331-.371.564-.91.564-.2,0-.232-.015-.208-.079a.631.631,0,0,0,.03-.168c0-.138.292-.445.519-.549S50.765-123.987,50.908-123.888Zm-34.439.2c.173.079.307.312.252.44s-.574.1-.811-.02a.535.535,0,0,1-.307-.425C15.6-123.8,16.246-123.794,16.469-123.691ZM46-123.32c.114.094.079.2-.129.4a2,2,0,0,1-1.147.415c-.321.03-.336.03-.336-.074a.982.982,0,0,1,.589-.7A1.389,1.389,0,0,1,46-123.32Zm-27.371.292a.391.391,0,0,1,.183.7.466.466,0,0,1-.42.143c-.772,0-.969-.574-.282-.816A.636.636,0,0,1,18.63-123.028Zm24.75.292c.208.094.43.326.4.42a.891.891,0,0,1-.262.188c-.559.312-1.058.2-1.058-.232a.391.391,0,0,1,.262-.4A.752.752,0,0,1,43.38-122.736Zm-27.737.129a.646.646,0,0,1,.247.529c-.015.1-.045.114-.247.129a.971.971,0,0,1-.717-.257c-.2-.168-.208-.287-.035-.42A.655.655,0,0,1,15.643-122.607Zm33.089-.015c.02.114-.312.47-.5.529-.089.025-.242.064-.341.084-.183.03-.188.025-.188-.114a.633.633,0,0,1,.247-.445C48.158-122.736,48.7-122.776,48.732-122.622Zm-27.851.148c.223.1.509.391.509.509a.571.571,0,0,0,.03.143c.025.069-.02.079-.331.079a2.3,2.3,0,0,1-.628-.094c-.3-.1-.752-.4-.752-.485s.228-.223.435-.262A1.22,1.22,0,0,1,20.881-122.474Zm2.364.4a1.033,1.033,0,0,1,.1.341c.045.317-.079.435-.435.43a1.123,1.123,0,0,1-.752-.252c-.084-.138.069-.341.366-.5C22.864-122.227,23.136-122.231,23.245-122.073Zm23,.1c.084.069.089.084.02.208a.625.625,0,0,1-.643.331c-.386,0-.509-.094-.4-.3a.668.668,0,0,1,.247-.218A1.021,1.021,0,0,1,46.249-121.969Zm-28.454.346a.617.617,0,0,1,.4.455c.01.129-.01.143-.143.158a1.291,1.291,0,0,1-.663-.247,1.263,1.263,0,0,1-.3-.391C17.087-121.717,17.616-121.7,17.795-121.623Zm24.641.1c.143.074.307.3.252.356a2.649,2.649,0,0,1-.519-.049c-.5-.074-.747-.173-.747-.307C41.422-121.628,42.208-121.623,42.436-121.519Zm1.657.1c.232.094.247.163.064.366a.521.521,0,0,1-.341.183l-.208.025-.1-.282a.818.818,0,0,1-.079-.326C43.474-121.524,43.875-121.5,44.093-121.415Zm-23.523.3c.064.025.079.084.069.287-.015.242-.02.252-.173.267-.49.049-1.073-.4-.767-.584A2.192,2.192,0,0,1,20.569-121.119Zm3.977.148c-.025.143-.252.262-.633.336-.2.045-.42.089-.475.1-.074.025-.114,0-.138-.054-.1-.277.242-.44.974-.46C24.516-121.049,24.561-121.035,24.546-120.97Zm-2.067.317a.542.542,0,0,1-.262.48.444.444,0,0,1-.519-.292c-.02-.148.094-.232.386-.292C22.439-120.827,22.478-120.817,22.478-120.654Z" transform="translate(-0.032 162.992)" fill="#cca152"/>
    </g>
  </g>
</svg>
