<svg xmlns="http://www.w3.org/2000/svg" xmlns:xlink="http://www.w3.org/1999/xlink" width="250" height="250" viewBox="0 0 250 250">
  <defs>
    <clipPath id="clip-path">
      <rect id="Rectangle_1" data-name="Rectangle 1" width="250" height="250" transform="translate(132 83)" fill="#fff" stroke="#707070" stroke-width="1"/>
    </clipPath>
  </defs>
  <g id="Mask_Group_1" data-name="Mask Group 1" transform="translate(-132 -83)" clip-path="url(#clip-path)">
    <g id="_1297939" data-name="1297939" transform="translate(132 122.138)">
      <path id="Path_1" data-name="Path 1" d="M241.936-162.776c-18.669,1.1-36.418,7.758-54.656,20.53a199.618,199.618,0,0,0-27.7,23.822c-10.716,11.3-20.315,23.312-25.154,31.462-1.665,2.782-3.193,4.545-3.624,4.114-.294-.294.176-1.234,1.175-2.37,2-2.253,1.92-3.644-.294-5.329l-1.058-.784.137-.921c.509-3.683,6.308-16.671,10.97-24.605,2.214-3.781,5.818-9.266,7.718-11.735a33.138,33.138,0,0,1,5.995-6.132,37.318,37.318,0,0,1,3.448-1.881c2.547-1.215,3.389-1.979,3.6-3.252.176-1.058-.02-1.587-.568-1.587-.568,0-3.311,1.646-5.544,3.291a57.332,57.332,0,0,0-8.169,8.169c-6.073,7.581-12.3,19.12-18.238,33.734a16.427,16.427,0,0,1-1.841,3.859,9.148,9.148,0,0,1-1.371.157l-1.077.059-1.626-3.82a128.059,128.059,0,0,0-14.712-26.251c-6.132-8.091-13.047-14.4-17.905-16.26-2.508-.98-3.213-.588-2.312,1.273.549,1.136,1.979,2.077,4.29,2.841a23.371,23.371,0,0,1,2.41.9c3.076,1.567,8.189,6.661,12.459,12.44A115.859,115.859,0,0,1,123.24-93.016l.666,1.881-1.215,1.273a6.891,6.891,0,0,0-1.352,1.783c-.2.784.255,1.646,1.7,3.174,1.352,1.43,1.685,2.018,1.41,2.527-.137.235-.333.078-.94-.725A225.672,225.672,0,0,0,66.6-136.467C54.478-144.3,43-149.514,31.636-152.315a98.409,98.409,0,0,0-23.312-2.978l-5.113-.118-.842.96C.821-152.687.233-150.983.057-147.809c-.47,9.149,5.76,23.841,14.222,33.636,5.583,6.426,5.5,6.308,5.5,9.149a19.3,19.3,0,0,0,.215,3,41.039,41.039,0,0,0,2.233,5.152c2.331,4.741,2.8,6.112,3.507,10.246,1.077,6.132,1.744,7.914,3.448,9.207l.882.686.118,2.664a17,17,0,0,0,.646,4.427c1.313,4.506,4.408,8.953,7.542,10.794.333.2.607.431.607.509a3.4,3.4,0,0,1-.666.882c-1.489,1.665-2,3.37-2.272,7.777-.588,9.09-.627,9.482-1.567,11.617l-.431,1.019.49,1.038a9.975,9.975,0,0,1,.725,2.8c.451,3.6.744,4.584,1.685,5.583l.47.509L37-26.076a7.579,7.579,0,0,0-.392,2.762,10.245,10.245,0,0,0,1.1,5.015,8.426,8.426,0,0,0,3.154,3.722c.96.607,1.019.705,1.136,1.685a14.3,14.3,0,0,0,4.173,7.346c1.175,1.136,1.7,1.469,4.584,2.782a18.88,18.88,0,0,1,3,2.37c1.7,1.587,2.272,2,3.1,2.253a7.65,7.65,0,0,0,1.548.294A6.7,6.7,0,0,1,62,3.8c2.331,1.783,2.214,1.724,4.584,1.763l2.155.02,3.389,1.7C76.6,9.539,77.712,9.774,80.161,9.01a12.315,12.315,0,0,1,5.74-.1,32.162,32.162,0,0,0,3.82.274c2.135.02,2.821-.215,4.839-1.665A9.736,9.736,0,0,1,98.85,5.6a7.038,7.038,0,0,0,4.192-2.253c1.939-1.939,5.485-7.8,9.286-15.3,4.153-8.208,7.346-16.279,11.793-29.777a11.7,11.7,0,0,1,.98-2.547c.039.157.157,2.625.274,5.485.49,11.832,1.43,16.75,3.82,19.669l.47.588.392-.49c1.1-1.332,2.155-4.349,2.547-7.229.1-.8.255-5.191.333-9.756.059-4.545.176-8.267.255-8.267a13.134,13.134,0,0,1,.882,2.214,168.9,168.9,0,0,0,9.344,21.49c6.994,14.046,11.323,20.354,15.79,23.038,1.038.607,1.548.764,4.271,1.254a8.207,8.207,0,0,1,2.938,1.273c.98.568,2.037,1.156,2.351,1.293.921.353,3.076.255,6.249-.294a30.257,30.257,0,0,1,6.563-.509c4.114,0,3.957.02,6.974-1.744,2.978-1.763,4.29-2.351,5.818-2.566.784-.117,1.7-.255,2.057-.313a9.41,9.41,0,0,0,2.351-1.332c2.194-1.567,2.645-1.8,4.329-2.175,1.822-.411,2.39-.823,4.153-3,1.665-2.037,2.233-2.488,3.428-2.664,1.293-.2,2.41-1.058,4.055-3.076,1.92-2.351,2.41-3.448,2.684-5.936.255-2.233.372-2.488,1.273-3.036a9.31,9.31,0,0,0,3.369-5.231,13.673,13.673,0,0,0-.1-6.719l-.431-1.254.646-.666.646-.666.118-3.37c.118-2.782.2-3.565.568-4.525.529-1.469.47-1.841-.862-4.9-1.312-2.978-1.41-3.487-1.783-8.15-.392-5.27-.9-6.915-2.468-8.189a1.947,1.947,0,0,1-.568-.607,2.122,2.122,0,0,1,.646-.509,16.346,16.346,0,0,0,3.977-4.055c1.881-2.86,2.782-6.367,2.958-11.323l.118-3.036.96-.862c1.724-1.528,2.1-2.782,2.605-8.639.47-5.5.862-6.994,3-11.656,1.861-4.094,2.272-5.818,2.018-8.5l-.137-1.43,1.352-2.1c5.348-8.189,8.463-13.419,10.442-17.572,3.487-7.307,5.172-14.262,4.9-20.256-.157-3.742-.705-5.74-2.057-7.6l-.607-.823-1.724.019C245.345-162.952,243.386-162.855,241.936-162.776Zm-8.659,2.331c1.038.47,1.2.862.627,1.469-.764.8-2.41,1.313-4.643,1.43-1.979.1-2.018.078-2.018-.333C227.244-159.994,230.868-161.542,233.278-160.445Zm14.046.98c.333.137.49.314.451.549-.059.255-.353.372-1.43.47a8.813,8.813,0,0,1-1.822.059c-.411-.1-.431-.157-.2-.431A2.917,2.917,0,0,1,247.324-159.466Zm-7.777,2.625a2.746,2.746,0,0,1,1.41,2.135c0,.862-1.077,1.822-2.214,2-2.135.333-4.447-.94-4.173-2.292C235-157.134,237.333-158,239.546-156.84Zm-217.8,3.663c.921.49,1.822,1.626,1.724,2.116-.137.686-6.23.137-7.327-.646-.549-.411-.1-1.215.96-1.7A6.17,6.17,0,0,1,21.743-153.177Zm207.009-.392c1.979.255,3.82,1.1,4.369,1.979,1.175,1.939-.313,3.859-3.487,4.486-3.036.588-8.639-.372-10.853-1.842-1.352-.921-.764-2.39,1.391-3.448A15.061,15.061,0,0,1,228.752-153.569Zm18.552,1.176c1.019.8.353,1.606-1.528,1.861-1.234.176-1.881-.02-1.881-.568C243.9-152.452,246.148-153.314,247.3-152.393ZM5.268-151.375c1.332.47.842.921-1,.921a5.412,5.412,0,0,1-1.215-.118.614.614,0,0,1-.176-.921A4.261,4.261,0,0,1,5.268-151.375Zm210.77.47a1.448,1.448,0,0,1,.588,1c.1.882-.509,1.215-2.155,1.215-1.156,0-1.352-.059-1.626-.451-.431-.686-.568-1.587-.255-1.842A3.652,3.652,0,0,1,216.038-150.9Zm-8.972.235a1.827,1.827,0,0,1-.392.862,8.6,8.6,0,0,1-3.6,1.842l-.764.117.372-.627C203.618-150.1,207.066-151.825,207.066-150.67Zm-192.9.784a2.182,2.182,0,0,1,1.7,2.958,3.04,3.04,0,0,1-2.429,1.607,2.68,2.68,0,0,1-1.959-.118c-1.175-.451-1.567-1.038-1.43-2.116a2.9,2.9,0,0,1,2.018-2.214A2.764,2.764,0,0,1,14.162-149.886Zm195.823,1.528c.451.118.451.176.372,1.7a5.464,5.464,0,0,1-3.193,5.015,10.282,10.282,0,0,1-4.055.647c-.451-.078-.47-.137-.333-1C203.442-146.164,206.85-149.2,209.985-148.358Zm30.913.274a1.918,1.918,0,0,1,1.43,1.645c0,1.469-1.744,2.841-3.624,2.841a7.523,7.523,0,0,1-3.663-1.019c-1.215-.862-.333-2.645,1.646-3.35A9.077,9.077,0,0,1,240.9-148.084ZM30.461-146.516c2.018.549,2.664,1.254,2.175,2.39-.568,1.391-2.939,2.9-5.6,3.585a12.494,12.494,0,0,1-3.644.235c-2.194-.078-2.468-.118-3.663-.725a3.748,3.748,0,0,1-2.37-2.488c-.333-1.567,2.116-2.743,6.739-3.232A27.2,27.2,0,0,1,30.461-146.516Zm169.553-.313a8.322,8.322,0,0,1-.47,1.038,7.421,7.421,0,0,1-5.5,3.7l-1.1.118.215-.568a6.222,6.222,0,0,1,3.291-3.389C197.663-146.556,200.013-147.143,200.013-146.83ZM45.976-145.263c1.41.509,2.41,1.371,2.41,2.077,0,.353-.078.392-.627.274-2.1-.451-3.683-1.528-3.683-2.468C44.076-145.87,44.37-145.85,45.976-145.263Zm-7.777,0c1.391.725.137,2.449-1.783,2.449-1.136,0-1.939-.568-1.939-1.371,0-.862.784-1.371,2.1-1.371A4.47,4.47,0,0,1,38.2-145.263Zm189.241-.02a8.555,8.555,0,0,1,4.662,2c.529.509.823.98.784,1.2-.078.451-1.9,1.548-3.291,1.979a20.683,20.683,0,0,1-8.443-.215c-2.841-.744-4.956-1.92-5.564-3.056l-.274-.568,1.019-.392a15.248,15.248,0,0,1,3.467-1A34.358,34.358,0,0,1,227.44-145.282ZM6.639-143.93c.764,1.548.157,1.763-2.664,1a2.537,2.537,0,0,1-1.038-.431c0-.255,1.038-1.175,1.567-1.391a2.823,2.823,0,0,1,1.077-.157C6.071-144.871,6.247-144.714,6.639-143.93ZM44.8-142.54a7.589,7.589,0,0,1,3.33,3.37c.529,1.175.823,3.271.49,3.487-.313.2-2.919-.235-4.329-.705a5.068,5.068,0,0,1-3.174-2.645,6.62,6.62,0,0,1-.137-1.881c.078-.98.176-1.254.627-1.646C42.313-143.166,43.469-143.147,44.8-142.54Zm199.055.627c.646.451.588,1.626-.1,2.449a2.728,2.728,0,0,1-3.526.764,1.3,1.3,0,0,1-.509-2C240.487-141.991,242.779-142.677,243.856-141.913Zm-190.514.176c2.625.686,4.858,2.272,5.329,3.8l.137.47-1.293-.137a7.715,7.715,0,0,1-4.231-1.626,8.107,8.107,0,0,1-1.959-2.645C51.324-142.109,52.108-142.069,53.342-141.736Zm160.4.666c.216.215-.2,1.293-.8,2.018-1.41,1.685-4.819,2.566-7.248,1.861a6.146,6.146,0,0,1-1.45-.588c-.353-.255-.333-.313.372-1.1a8.219,8.219,0,0,1,5.231-2.351A11.835,11.835,0,0,1,213.746-141.07Zm-198.762.588c.9.392,2.057,1.626,2.057,2.194,0,.235-.333.588-.921.98-2.762,1.744-6.19,1.489-6.9-.509a1.637,1.637,0,0,1,.039-1.508C9.911-140.874,12.732-141.443,14.985-140.483Zm19,1.8a7.781,7.781,0,0,1,1.724.353c.313.313-.137,1.293-.98,2.116-1.724,1.665-4.858,2.723-8.678,2.939a33.426,33.426,0,0,1-6.778-.451c-.588-.157-.627-.823-.1-1.939.862-1.881,2.723-2.9,5.995-3.252A62.153,62.153,0,0,1,33.987-138.68Zm158.445-.1a40.106,40.106,0,0,1-5.7,5.015,38.844,38.844,0,0,1-3.467,2.018c-1.959,1-5.9,2.41-6.112,2.194-.235-.235.921-1.841,2.233-3.1a26.216,26.216,0,0,1,10.833-5.955C192.256-139.17,192.589-139.19,192.432-138.778Zm45.841,2.39.94.411-.059,1.528-.059,1.528-1.077.568a3.971,3.971,0,0,1-2.1.588,1.668,1.668,0,0,1-1.646-.607,2.886,2.886,0,0,1,.372-4.232A4.584,4.584,0,0,1,238.273-136.388Zm-15.5-.157a9.393,9.393,0,0,1,4.662,1.744l.744.705-.274,1.273a5.871,5.871,0,0,1-4.31,4.506c-3.859,1.2-8.228-.568-9.09-3.644C213.609-135.174,217.468-137.309,222.777-136.545Zm-179.25,1.058a6.093,6.093,0,0,1,3.35,1.646c.862.842.9,1.077.2,1.411a7.674,7.674,0,0,1-7.816-.49c-1.136-.862-1.685-2.508-.9-2.7A20.359,20.359,0,0,1,43.527-135.487Zm161.971.411a5.254,5.254,0,0,1,1.371.705l.49.372-.784.705a10.736,10.736,0,0,1-6.857,2.429c-1.724,0-2.7-.215-3.252-.705-.451-.392-.2-1.215.646-2.057C198.838-135.33,202.834-136.036,205.5-135.076Zm-142.518,1a24.355,24.355,0,0,1,6.955,3c1.783,1.117,5.289,4.036,5.289,4.388,0,.314-2.253.02-4.212-.548a27.746,27.746,0,0,1-7.581-3.781,23.984,23.984,0,0,1-4.075-3.585C59.356-134.86,60.708-134.664,62.98-134.077Zm-51.875-.02a2.655,2.655,0,0,1,1.43,2.037c0,.98-1.822,1.665-3.213,1.195-1.548-.509-2.194-2.253-1.195-3.232C8.775-134.762,9.95-134.762,11.106-134.1Zm24.84,4.212a3.022,3.022,0,0,1,1.861,2.938c-.02,3.036-2.723,5.093-6.759,5.093-3.7,0-6.524-1.783-6.876-4.329a2.339,2.339,0,0,1,1.528-2.8C28.874-130.394,33.987-130.825,35.946-129.884Zm17.435.078a5,5,0,0,1,2.664,2.331c.313.764.02,1-1.724,1.313a12.934,12.934,0,0,1-5.348-.294c-1.41-.372-4.31-1.626-4.31-1.881,0-.274,1.038-1.136,1.763-1.489a6.9,6.9,0,0,1,3.82-.568A6.415,6.415,0,0,1,53.381-129.806Zm176.546-.431a2.915,2.915,0,0,1,.215,2.331l-.2,1.156h-1.136c-1.1,0-1.136-.02-1.352-.607a2.165,2.165,0,0,1,.2-2.214C228.3-130.394,229.536-130.746,229.928-130.237Zm-212.3.98a3.083,3.083,0,0,1,1.763,2.331,2.9,2.9,0,0,1-1.7,2.057,5.75,5.75,0,0,1-3.448,0c-1.508-.646-2.077-2.077-1.273-3.252A3.6,3.6,0,0,1,17.629-129.257Zm176.194,1.332c.274.1.509.255.509.353a10.606,10.606,0,0,1-1.175,1.626,31.99,31.99,0,0,0-5.093,11.147,6.861,6.861,0,0,1-.49,1.489,11.168,11.168,0,0,1-2.214,1.606c-6.19,3.8-11.264,9.364-12.753,13.987a3.6,3.6,0,0,1-.96,1.332c-.392.333-4.6,2.547-9.344,4.937-8.874,4.486-9.462,4.839-17.141,10.167-4.016,2.762-7.405,4.251-10.618,4.584l-1.313.137.1-1.038a21.3,21.3,0,0,1,3.7-9.188c1.9-2.8,2.978-4.036,9.5-10.99,1.567-1.665,3.938-4.29,5.289-5.838,1.352-1.567,3.683-4.251,5.172-5.975a130.013,130.013,0,0,1,10.892-11.029c5.544-4.466,10.735-6.661,17.2-7.288A53.335,53.335,0,0,1,193.823-127.925Zm12.518.294a7.3,7.3,0,0,1,5.936,6.151c1,4.741-.764,8.992-4.467,10.755a13.807,13.807,0,0,1-8.483.627c-2.272-.509-9.756-2.547-9.932-2.723-.2-.176,1.136-6.661,1.685-8.091a8.35,8.35,0,0,1,2.351-3.644C196.037-126.965,202.384-128.474,206.341-127.631Zm30.58,1.313a2.951,2.951,0,0,1,.039,1.234c-.333,1.293-2.39,2.37-3,1.567a2.883,2.883,0,0,1,.078-2.468A2.4,2.4,0,0,1,235.863-127C236.627-127.122,236.725-127.063,236.921-126.319ZM69.249-124.007c9.129,1.019,14.36,4.192,26.741,16.162,2.312,2.233,6.543,6.249,9.4,8.914,6.386,5.955,11.813,11.46,13.576,13.811a16.92,16.92,0,0,1,3.585,8.11l.118.862-1.744-.137a22.8,22.8,0,0,1-6.093-1.469,58.741,58.741,0,0,1-7.288-3.84c-8.443-4.8-13.87-7.425-18.807-9.109-5.7-1.939-6.328-2.39-7.973-5.8-2.155-4.486-4.036-6.249-11.6-10.755l-3.6-2.155-.431-1.567a31.006,31.006,0,0,0-6.053-11.147c-.9-1.1-1.058-1.391-.823-1.528C59.043-124.105,66.35-124.321,69.249-124.007ZM223.7-123.6a4.181,4.181,0,0,1,1.626,5.329c-1.273,2.88-6.406,3.369-7.777.725a4.951,4.951,0,0,1,2.135-6.308A4.981,4.981,0,0,1,223.7-123.6Zm-198.918.607a4.647,4.647,0,0,1,.392,2.488c-.1.352-.274.411-1.273.411H22.742l-.392-1.077c-.744-1.959-.509-2.429,1.215-2.449C24.447-123.615,24.525-123.576,24.78-122.989Zm29.444.47q5.906,1.175,7.758,6.151c.588,1.587,2.351,7.621,2.253,7.719s-4.643,1.685-7.621,2.664a25.746,25.746,0,0,1-3.957.98c-5.093.686-9.717-1.489-11.578-5.426-.588-1.273-.627-1.45-.607-3.585a7.76,7.76,0,0,1,.451-3.389c1.1-2.762,3.33-4.427,6.974-5.152A19.07,19.07,0,0,1,54.224-122.518Zm176.115.588a2.786,2.786,0,0,1,1.019,1.842c0,.588-.882.882-1.861.588-.862-.255-2.253-1.117-2.253-1.411a2.288,2.288,0,0,1,.568-.764A2.047,2.047,0,0,1,230.339-121.931ZM17.727-119.58a2.165,2.165,0,0,1,.96,2.978c-.568.823-2.135.372-2.7-.823-.431-.9-.392-1.606.078-2.076S16.865-119.991,17.727-119.58Zm15.692,2.018c2.547,1.156,3.291,5.015,1.332,6.935a3.916,3.916,0,0,1-2.723,1.254,4.171,4.171,0,0,1-3.644-7.013A4.3,4.3,0,0,1,33.419-117.562Zm-8.463,2.39c.588.451.627.744.235,1.528a2.181,2.181,0,0,1-2.135,1c-1.41,0-1.744-.842-.784-1.959C23.134-115.642,24.094-115.838,24.956-115.172Zm204.129,4.016a5.1,5.1,0,0,1-.059,2.429,2.18,2.18,0,0,1-1.567-.9c-.294-.646-.274-1.587.039-1.7C228.047-111.568,228.968-111.47,229.085-111.156Zm-6.739.176c.9.47.921.96.078,2.194l-.744,1.077-1.195-.078c-2.077-.176-3.193-1.1-2.684-2.214C218.291-111.078,221.034-111.666,222.346-110.98Zm-24.684,1.469c4.9.451,8.933,1.41,10.285,2.429,3.507,2.684,3.467,9.971-.078,13.419-2.253,2.194-4.662,2.253-17.063.509-9.913-1.411-12.146-1.959-14.438-3.487a2.74,2.74,0,0,1-1.43-2.488c0-1.665,1.7-4.173,4.525-6.68,2.88-2.586,4.329-3.35,6.876-3.683A90.474,90.474,0,0,1,197.663-109.511ZM68.857-104.926a14.859,14.859,0,0,1,5.329,2.821c3.683,2.86,5.152,4.682,5.152,6.386,0,2.684-2.841,4.036-12.832,6.073-2.37.49-5.936,1.254-7.934,1.685a30.045,30.045,0,0,1-6.465.921c-2.605.1-2.939.059-4-.333a5.806,5.806,0,0,1-3.232-2.919c-1.234-2.331-1.822-6.151-1.234-8.189.627-2.116,2.684-3.957,5.485-4.839a80.247,80.247,0,0,1,9.736-1.783A41.02,41.02,0,0,1,68.857-104.926Zm-42.589.333a1.477,1.477,0,0,1-.333,2.077c-.607.548-1.175.568-1.45.078a1.771,1.771,0,0,1,.646-2.37C25.759-105.064,25.818-105.044,26.269-104.593Zm9.325-.118c.646.274.686.333.568.94a3.388,3.388,0,0,1-.8,1.293,2.126,2.126,0,0,1-1.744.764c-1.822.157-3.056-.686-3.056-2.037a1.743,1.743,0,0,1,.059-.666c.02,0,.392-.137.823-.294A7.858,7.858,0,0,1,35.593-104.711Zm184.089,2.135a2.135,2.135,0,0,1,1.45,2.292c-.157,1.567-1.352,2.664-3.389,3.115-1.763.392-4-.274-4.173-1.254a4.168,4.168,0,0,1,2.39-4.055A5.779,5.779,0,0,1,219.682-102.576Zm6.68,2.625c-.157.862-1.646,2.39-2.351,2.39-1,0-.49-1.744,1.019-3.35l.94-1,.255.646A2.485,2.485,0,0,1,226.362-99.951Zm-187.615,3.6a3.034,3.034,0,0,1,1.9,2.723c0,1.528-1.117,2.331-3.272,2.331-2.253,0-4.075-1.293-4.075-2.9C33.3-96.483,36.083-97.58,38.747-96.346Zm-9.932,1.508c1.489.96,2.135,1.92,2.135,3.173,0,.627-.039.627-1.293.176a4.036,4.036,0,0,1-1.744-2.39C27.4-95.621,27.483-95.7,28.815-94.838ZM176.7-93.349c1.019.176,3.448.607,5.387,1,3.272.646,4.016.705,9.991.96,8.071.353,9.619.588,12.107,1.9a8.157,8.157,0,0,1,3.879,8.816,12.852,12.852,0,0,1-4.408,6.974,6.192,6.192,0,0,1-4.231,1.254c-1.783.02-3.174-.274-7.64-1.606a60.925,60.925,0,0,0-9.893-2.057c-5.054-.588-6.994-.392-17.925,1.763C152.586-72.113,151.783-72,146.141-72c-4.329,0-5-.039-6.857-.451A33.31,33.31,0,0,1,135.7-73.5c-1.215-.49-1.469-.646-1.293-.882.353-.411,2.41-1.332,5.426-2.41,5.074-1.822,6.073-2.39,12.636-7.092,9.051-6.484,12.792-8.6,16.789-9.442A25.486,25.486,0,0,1,176.7-93.349Zm38.1.431c2.1,1.078,2.351,2.762.549,3.526a3.557,3.557,0,0,1-4.76-2.351,1.2,1.2,0,0,1,.255-1.234c.372-.49.47-.509,1.783-.431A6.5,6.5,0,0,1,214.8-92.918Zm8.326,1.841a1.573,1.573,0,0,1-.588,1.371c-.764.784-1.626.745-1.724-.059a1.7,1.7,0,0,1,1-1.724C222.816-92.115,223.13-92.017,223.13-91.076Zm-137.19.686a56.636,56.636,0,0,1,11.068,4.114,59.371,59.371,0,0,1,9.462,5.466c6.719,4.466,9.834,5.877,14.262,6.465.94.118.94.137.607.509-.607.666-3.409,1.92-5.446,2.429a34.263,34.263,0,0,1-4.741.725c-4.427.372-8.561.039-21.628-1.743a54.436,54.436,0,0,0-8.718-.529c-4.6,0-5.035.02-7.366.529a92.871,92.871,0,0,0-11.147,3.448c-4.564,1.587-6.6,1.665-9.325.313A10.966,10.966,0,0,1,47.6-75.757a11.226,11.226,0,0,1,.431-5.779,8.372,8.372,0,0,1,3.448-3.644c2.155-1.156,4.467-1.567,10.912-2a42.886,42.886,0,0,0,11.656-2c1.567-.431,3.585-.96,4.506-1.156A21.766,21.766,0,0,1,85.94-90.391ZM43.958-86.943c.235,1.979.176,2.253-.509,2.664a4.711,4.711,0,0,1-3.546.646,4.461,4.461,0,0,1-1.489-.627l-.49-.392.372-.705a5.344,5.344,0,0,1,4.623-2.586l.9-.02ZM32.89-85.4a2.012,2.012,0,0,1,1.195,1.939c0,.49-.078.588-.451.588a1.918,1.918,0,0,1-.9-.313,4.658,4.658,0,0,1-1.195-2.194C31.538-85.669,32.067-85.689,32.89-85.4Zm185.44,3.389a2.608,2.608,0,0,1,1.117,3.624,2.865,2.865,0,0,1-2.645,1.391c-3.467,0-3.957-3.879-.627-5.054A2.661,2.661,0,0,1,218.33-82.006ZM40.021-75.933a4.348,4.348,0,0,1,1.293,1c.568.646.646.842.549,1.528-.274,2.057-3.036,3.056-4.819,1.744-1.567-1.136-1.508-3.7.078-4.369A5.423,5.423,0,0,1,40.021-75.933Zm118.227,8.678c8.483.039,15.28.157,15.222.255-.2.313-6.053,1.528-10.579,2.194a61.837,61.837,0,0,1-6.759.255A33.723,33.723,0,0,1,148.864-65a21.757,21.757,0,0,1-6.151-1.9c-1.273-.627-1.313-.666-.588-.568C142.556-67.411,149.8-67.313,158.247-67.255ZM191.884-67c6.9.784,11.539,3.526,12.753,7.6.451,1.469.411,2.527-.137,3.115-1.175,1.254-3.683,1.822-8.169,1.822a146.252,146.252,0,0,1-16.044-1.273c-2.547-.568-3.957-1.743-5.544-4.564-1.293-2.292-2.645-4.251-3.1-4.467-.255-.137-.372-.274-.274-.353.607-.372,8.541-1.7,11.6-1.939A78.924,78.924,0,0,1,191.884-67Zm-77.675.255c0,1.391-6.582,3.526-12.42,4.055a70.049,70.049,0,0,1-11.343-.1c-3.585-.47-7.581-1.352-7.581-1.665a38.573,38.573,0,0,1,4.564-.274c15.457-.451,20.433-.823,24.331-1.861C113.464-67.039,114.209-67.078,114.209-66.745Zm29.679,1.45c9.423,3.232,9.678,3.252,16.456,2.116a28.844,28.844,0,0,1,6.465-.646,6.2,6.2,0,0,1,3.467.705c2.077,1.019,4.016,3.154,5.8,6.347.353.627,1.508,3.1,2.605,5.485,2.312,5.113,2.762,5.955,4.388,8.189,1.469,1.979,2.057,2.939,2.057,3.311,0,.216-.549.255-3.174.157-6.132-.215-11.989-2.018-20.433-6.23-3.526-1.783-9.58-5.152-12.146-6.8-6.778-4.329-11.127-9.247-11.127-12.577a4.359,4.359,0,0,1,.137-1.332C138.618-66.961,139.931-66.647,143.888-65.3Zm-25.957-.431c.2.235.137.647-.274,2.077-1,3.487-2.547,5.916-5.74,9.012-3.1,3-6.8,5.642-13.733,9.8-9.736,5.838-15.829,8.228-22.333,8.816a26.857,26.857,0,0,1-2.762.157c-.118-.039.176-.568.686-1.156a35.76,35.76,0,0,0,4.114-8.326A94.1,94.1,0,0,1,81.846-55.3c3.1-6.053,6.132-7.405,13.85-6.132,6.8,1.136,7.6,1,15.672-2.39,3.546-1.489,5.407-2.155,5.995-2.175A.786.786,0,0,1,117.931-65.727ZM79.221-63.18c2.449.255,4.036.49,5.642.8l.529.1-.784.705A11.569,11.569,0,0,0,82.629-58.4c-1.646,3.369-2.37,4.427-3.565,5.211-2.723,1.783-9.8,2.919-18.238,2.938-5.054,0-6.426-.176-7.581-.96l-.646-.431.02-1.665a5.029,5.029,0,0,1,.568-2.821C54.87-59.693,59.748-62.2,66.8-63.18A72.885,72.885,0,0,1,79.221-63.18Zm63.413,7.66A141.466,141.466,0,0,0,159.6-44.08l2.762,1.606.823,2.39a82.145,82.145,0,0,0,8.267,17.651c3.663,5.936,4.173,7.268,4.036,10.833-.137,3.742-.784,4.467-3.761,4.31-2.586-.118-4.937-1.724-8.071-5.466a109.348,109.348,0,0,1-7.464-10.657c-1.822-2.8-5-7.444-7.052-10.324-8.62-11.989-11.225-16.632-13.165-23.332-.882-3-1.019-4.036-.666-4.584.294-.431.313-.431,2.566,1.861C139.147-58.517,141.282-56.6,142.634-55.52ZM121.281-61.5c.392.744-.294,5.426-1.293,8.874-1.41,4.858-3.1,8.189-8.914,17.553-1.9,3.076-4.819,7.914-6.465,10.775-5.72,9.834-9.305,15.339-11.245,17.2A7.355,7.355,0,0,1,88-4.645a9.787,9.787,0,0,1-1.92-.137c-.568-.176-1.43-1.861-1.646-3.213a12.9,12.9,0,0,1,.686-5.681c.294-.823,1.548-3.585,2.821-6.112,3.6-7.209,5.407-11.793,6.778-17.239.627-2.468.725-2.684,1.43-3.33.431-.372,3.134-2.39,6.034-4.447,10.167-7.288,14.458-11.127,17.709-15.927a4.378,4.378,0,0,1,.979-1.175C120.967-61.907,121.144-61.73,121.281-61.5Zm92.759.882a6.4,6.4,0,0,1,3.017,5.309v1.077l-.627-.118a9.975,9.975,0,0,1-4.839-2.978,6.962,6.962,0,0,1-1.391-1.841,2.629,2.629,0,0,1,1.45-1.685A2.673,2.673,0,0,1,214.04-60.614Zm-81.005,2.664c.353.686,1.939,3.6,3.565,6.524,6.288,11.284,8.208,16.534,8.659,23.7.059.96.157,2.312.216,2.978a2.856,2.856,0,0,1-.059,1.234,4.939,4.939,0,0,1-.882-1.332c-.392-.725-1.822-3.213-3.193-5.524-6.543-11.127-9.305-18.493-9.305-24.88a14.3,14.3,0,0,1,.313-3.918A7.71,7.71,0,0,1,133.035-57.949Zm-8.012,2.684a20.149,20.149,0,0,1-.1,5.328c-.588,4.858-2,8.8-6.406,18.1C115.6-25.7,114.6-23.432,114.6-23c0,.157-.078.274-.176.274-.255,0-.607-3.213-.607-5.6a34.863,34.863,0,0,1,2.351-12.028c.823-2.233,1.41-3.585,4.564-10.481,1.019-2.272,2.135-4.9,2.468-5.857a15.3,15.3,0,0,1,.842-2.037C124.474-59.242,124.787-58.067,125.022-55.265Zm-78.831.039c.529.2.568.842.137,2.272-.431,1.45-1.489,2.429-3.879,3.6l-2,.98-.059-.9c-.176-2.743,1.508-5.681,3.546-6.171A4,4,0,0,1,46.192-55.226Zm136.132,1.254c1.685.451,2.527.529,7.5.686,10.148.353,12.2.862,15.79,3.9a14.939,14.939,0,0,1,3.859,4.9,7.409,7.409,0,0,1,.431,5.25,5.141,5.141,0,0,1-2.8,2.86,7.913,7.913,0,0,1-3.389.646,11.579,11.579,0,0,1-4.682-.47c-9.834-2.39-15.829-7.033-18.924-14.634-.98-2.37-.94-3.6.059-3.624C180.306-54.462,181.266-54.247,182.324-53.973Zm31.168,2.7a4.309,4.309,0,0,1,1.019,2.86c0,1.234-.333,1.587-1.489,1.587-.764,0-.9-.059-1.077-.548a6.781,6.781,0,0,1,.274-3.82C212.63-51.837,212.943-51.857,213.492-51.269ZM77.5-49.584a14.653,14.653,0,0,1-2.743,7.542,30.3,30.3,0,0,1-5.681,5.877C63-31.659,55.125-29.74,51.089-31.757c-3.957-2-4.075-6.876-.255-11.3a13.712,13.712,0,0,1,8.13-5.015c1.136-.274,4.8-.9,8.169-1.391,3.35-.49,6.661-1.058,7.346-1.254a4.98,4.98,0,0,1,2.586-.431l.568.078Zm141.852-.255c.686,1.058.215,3.213-.725,3.213-.686,0-1.058-.842-.9-2.175.157-1.548.392-2.018.9-1.743A2.716,2.716,0,0,1,219.349-49.839Zm-173.8,4.486A6.582,6.582,0,0,1,46-43.433c.078.98.02,1.2-.372,1.626a1.382,1.382,0,0,1-2.116-.02,2.975,2.975,0,0,1,.372-3.82C44.6-46.43,45.055-46.352,45.545-45.353Zm168.24.9A2.2,2.2,0,0,1,214.491-42c-.313.646-1.156,1.175-1.606,1-.274-.1-.333-.411-.333-1.685C212.551-44.961,212.767-45.275,213.785-44.452Zm-174.411.274c.666.725.8,2.625.215,3.213q-.705.705-1.175-.294c-.392-.882-.2-3.409.274-3.409A1.583,1.583,0,0,1,39.374-44.177Zm180.7.744a.531.531,0,0,1,0,.666,1.712,1.712,0,0,1-1.567.509c-.411-.157-.333-.9.137-1.508.372-.47.451-.509.823-.255A1.943,1.943,0,0,1,220.074-43.433Zm-51.835,3.389c14.183,5.6,22.842,11.676,25.506,17.905a5.85,5.85,0,0,1,.47,2.743,4.047,4.047,0,0,1-.568,2.723,8.79,8.79,0,0,1-6.21,4.016c-4.075.842-7.366-.078-10.069-2.762-2.312-2.331-5.779-7.993-9.266-15.182-2.978-6.132-4.29-9.775-3.742-10.442a.807.807,0,0,1,.411-.294C164.869-41.337,166.436-40.749,168.238-40.044ZM45.389-38.653a4.374,4.374,0,0,1-.1,3.036c-.157.157-.451.059-1.1-.313-.9-.529-1.234-1.077-.96-1.548a9.047,9.047,0,0,1,1.685-1.9C45-39.378,45.212-39.045,45.389-38.653Zm48.446.47a27.2,27.2,0,0,1-1.508,6.641c-.705,1.861-4.506,10.069-6.739,14.555a22.491,22.491,0,0,1-3.938,5.936c-3.1,2.782-9.913,2.978-13.968.372A5.168,5.168,0,0,1,65.1-15.87c.431-5.76,7.738-12.6,21.1-19.786,3.291-1.783,6.621-3.311,7.209-3.33C93.776-38.986,93.835-38.888,93.835-38.183Zm118.99-.1a2.343,2.343,0,0,1-.96,1.959c-.627.411-1.077.216-1.371-.607-.157-.47-.118-.588.451-1.1C211.65-38.653,212.63-38.79,212.825-38.281Zm-23.684.451c5.544.94,9.736,2.429,12.851,4.545,2,1.352,3.1,3.017,3.115,4.7a7.213,7.213,0,0,1-3.115,5.6c-2.272,1.195-4.506.176-10.461-4.819a79.274,79.274,0,0,0-12.538-8.933,13.156,13.156,0,0,1-2.1-1.313c0-.255,1.156-.313,5.485-.255A39.094,39.094,0,0,1,189.141-37.83ZM39.609-37.869c.431.392.47,1.156.039,1.313a3.22,3.22,0,0,1-1.724,0c-.411-.157-.392-.842.02-1.293A1.232,1.232,0,0,1,39.609-37.869Zm178.976.294a3.483,3.483,0,0,1,.039,2.39c-.431,1.136-1.939,1.41-2.39.411-.294-.666-.078-1.313.823-2.233C217.88-37.85,218.193-37.967,218.585-37.576ZM146.3-35.715c.646,1.058,2.351,3.546,3.781,5.544s3.761,5.25,5.211,7.248c5.838,8.149,8.678,13.948,8.678,17.807,0,4.055-3.6,4.8-6.974,1.43-4.447-4.447-9.854-17.337-11.656-27.759-.49-2.86-.705-6.171-.411-6.171A9.726,9.726,0,0,1,146.3-35.715Zm-32.872,3.154a66.1,66.1,0,0,1-1.959,13.067c-2.351,9.6-6.112,16.671-10.011,18.807a3.968,3.968,0,0,1-2.449.568c-1.567,0-1.939-.176-2.37-1.2-.784-1.92.411-6.817,2.88-11.7.705-1.411,3.409-6.132,5.995-10.5s5.27-8.914,5.955-10.089c.666-1.195,1.371-2.312,1.528-2.507.294-.333.313-.333.47.059A20.409,20.409,0,0,1,113.425-32.561ZM82.179-34.911c-.118.1-1.508.94-3.134,1.9-5.877,3.448-6.621,4.036-11.754,9.207-5.27,5.309-5.9,5.779-7.973,5.779a5.627,5.627,0,0,1-1.8-.274,6.761,6.761,0,0,1-2.821-2.743,4.647,4.647,0,0,1-.529-2.762A4.546,4.546,0,0,1,54.6-26.35c2.077-3.84,8.287-6.621,17.984-8.032C76.125-34.892,82.551-35.244,82.179-34.911ZM47.485-32.7c1.117.882,1.077,1.939-.118,1.939-1.038,0-2.468-1.9-1.665-2.214A1.843,1.843,0,0,1,47.485-32.7Zm-6.151,1.273c.96.823,1.41,1.939,1.019,2.566a2.277,2.277,0,0,1-1.136.353l-1,.137-.235-.882c-.411-1.646-.215-2.684.49-2.684A2.512,2.512,0,0,1,41.333-31.424Zm170.238,1.175c0,1.391-.235,1.841-.98,1.841-.548,0-.588-.039-.588-.784,0-1.273.49-1.979,1.43-2.135C211.513-31.326,211.572-30.856,211.572-30.249Zm6.053.372a3.253,3.253,0,0,1,.607.882,1.915,1.915,0,0,0,.118.451c.157.451-.607,1.117-1.273,1.117-.744,0-1.195-.627-1.195-1.626C215.882-30.66,216.626-31.013,217.625-29.877ZM48.092-25.743a3.082,3.082,0,0,1,1.038,2.194c-.078.725-.784.8-1.43.157a1.959,1.959,0,0,1-.255-2.233C47.72-25.9,47.681-25.9,48.092-25.743Zm-5.5.98c.607.235.744.8.47,1.939L42.8-21.747H40.687l.118-.882C41.079-24.509,41.588-25.136,42.587-24.764Zm167.378,2.527a2.359,2.359,0,0,1-1.273,2.272c-1.254.47-1.273-1.058-.02-2.488C209.456-23.334,209.887-23.255,209.965-22.237Zm4.6.725c1.038,1.41.313,5.6-.9,5.133a2.2,2.2,0,0,1-.921-1.841A20.592,20.592,0,0,1,213.472-22C213.648-22.3,214.158-22.06,214.569-21.512ZM50.678-17.4c1.058,1.136,1.352,2.135.705,2.468-.862.451-1.724-.451-1.939-2.077-.118-.921-.1-1.019.255-1.019A2.145,2.145,0,0,1,50.678-17.4Zm152.47.882a4.8,4.8,0,0,0,.118.98c.078.294.02.451-.255.529a4.988,4.988,0,0,1-2.135.059c-.255-.235,1.626-2.1,2.116-2.1C203.089-17.045,203.148-16.81,203.148-16.516Zm-157.466.078c.666.353,1.136,1.685,1.117,3.213-.02,1.783-.2,2.331-.705,2.41-.725.118-1.293-.96-1.391-2.684-.078-1.332.2-3.154.47-3.154A2.381,2.381,0,0,1,45.682-16.438Zm163.832,2.919c.627.588.509,1.058-.49,1.979-1.665,1.528-4.388,1.528-4.016,0a3.7,3.7,0,0,1,1.489-2.135A2.586,2.586,0,0,1,209.515-13.519ZM58.122-11.442c.8.607.823.96.039,1.352-.47.255-.646.274-.882.078a2.9,2.9,0,0,1-.862-1.822c0-.47.039-.49.529-.294A5.689,5.689,0,0,1,58.122-11.442Zm139.756-.294c.353.353.372.451.118.823-.568.882-1.234,1.175-2.8,1.273l-1.508.1.137-.568a2.422,2.422,0,0,1,1.587-1.665C196.468-12.265,197.369-12.246,197.878-11.736Zm-144.634,3a5.385,5.385,0,0,1,2,2.155c.294.823-.1,1.175-1.332,1.175-1.9,0-3.938-1.293-3.663-2.312A2.108,2.108,0,0,1,53.244-8.739Zm135.9.392A1.6,1.6,0,0,1,190.218-6.7c0,.823-.882,1.528-2.1,1.7-1.881.255-2.958-.725-2.547-2.312a1.482,1.482,0,0,1,.979-.921A2.88,2.88,0,0,1,189.141-8.347Zm12.4.235a1.029,1.029,0,0,1,.431.98c0,1.312-1.469,2.233-3.6,2.233-.784,0-.921-.059-.823-.313a2.5,2.5,0,0,0,.118-.666c0-.549,1.156-1.763,2.057-2.175C200.68-8.5,200.973-8.5,201.542-8.112ZM65.135-7.328c.686.313,1.215,1.234,1,1.744-.157.451-2.272.392-3.213-.078a2.12,2.12,0,0,1-1.215-1.685C61.707-7.759,64.254-7.74,65.135-7.328ZM182.108-5.859c.451.372.313.784-.509,1.567a7.911,7.911,0,0,1-4.545,1.646c-1.273.118-1.332.118-1.332-.294a3.889,3.889,0,0,1,2.331-2.782C179.4-6.271,181.52-6.349,182.108-5.859ZM73.7-4.7a1.547,1.547,0,0,1,.725,2.762,1.847,1.847,0,0,1-1.665.568c-3.056,0-3.84-2.272-1.117-3.232A2.518,2.518,0,0,1,73.7-4.7Zm98.029,1.156c.823.372,1.7,1.293,1.587,1.665a3.529,3.529,0,0,1-1.038.744c-2.214,1.234-4.192.784-4.192-.921a1.549,1.549,0,0,1,1.038-1.567A2.979,2.979,0,0,1,171.725-3.548ZM61.864-3.038a2.557,2.557,0,0,1,.98,2.1c-.059.392-.176.451-.98.509a3.848,3.848,0,0,1-2.841-1.019c-.784-.666-.823-1.136-.137-1.665A2.6,2.6,0,0,1,61.864-3.038ZM192.922-3.1c.078.451-1.234,1.861-1.979,2.1-.353.1-.96.255-1.352.333-.725.118-.744.1-.744-.451a2.506,2.506,0,0,1,.98-1.763C190.649-3.548,192.8-3.7,192.922-3.1ZM82.61-2.509c.882.411,2.018,1.548,2.018,2.018a2.261,2.261,0,0,0,.118.568c.1.274-.078.313-1.313.313A9.119,9.119,0,0,1,80.945.018c-1.175-.411-2.978-1.567-2.978-1.92s.9-.882,1.724-1.038A4.833,4.833,0,0,1,82.61-2.509ZM91.974-.922A4.09,4.09,0,0,1,92.385.429c.176,1.254-.313,1.724-1.724,1.7a4.446,4.446,0,0,1-2.978-1c-.333-.548.274-1.352,1.45-1.979C90.465-1.53,91.543-1.549,91.974-.922Zm91.114.411c.333.274.353.333.078.823a2.476,2.476,0,0,1-2.547,1.313c-1.528,0-2.018-.372-1.567-1.195a2.644,2.644,0,0,1,.98-.862A4.044,4.044,0,0,1,183.088-.511ZM70.386.86a2.445,2.445,0,0,1,1.567,1.8c.039.509-.039.568-.568.627a5.112,5.112,0,0,1-2.625-.98A5,5,0,0,1,67.584.762C67.584.488,69.68.566,70.386.86Zm97.6.411c.568.294,1.215,1.2,1,1.41a10.489,10.489,0,0,1-2.057-.2c-2-.294-2.958-.686-2.958-1.215C163.968.841,167.082.86,167.984,1.272Zm6.563.411c.921.372.979.646.255,1.45a2.064,2.064,0,0,1-1.352.725l-.823.1-.411-1.117a3.241,3.241,0,0,1-.313-1.293C172.1,1.252,173.684,1.35,174.546,1.683ZM81.376,2.858c.255.1.313.333.274,1.136-.059.96-.078,1-.686,1.058-1.939.2-4.251-1.567-3.036-2.312A8.681,8.681,0,0,1,81.376,2.858Zm15.75.588c-.1.568-1,1.038-2.508,1.332-.8.176-1.665.353-1.881.411-.294.1-.451.02-.549-.215-.411-1.1.96-1.744,3.859-1.822C97.009,3.133,97.185,3.191,97.126,3.446ZM88.937,4.7A2.145,2.145,0,0,1,87.9,6.6a1.76,1.76,0,0,1-2.057-1.156c-.078-.588.372-.921,1.528-1.156C88.781,4.014,88.937,4.053,88.937,4.7Z" transform="translate(-0.032 162.992)" fill="#cca152"/>
    </g>
  </g>
</svg>
